<?xml version="1.0" encoding="UTF-8" standalone="no"?>
<!-- Created with Inkscape (http://www.inkscape.org/) -->

<svg
   xmlns:dc="http://purl.org/dc/elements/1.1/"
   xmlns:cc="http://creativecommons.org/ns#"
   xmlns:rdf="http://www.w3.org/1999/02/22-rdf-syntax-ns#"
   xmlns:svg="http://www.w3.org/2000/svg"
   xmlns="http://www.w3.org/2000/svg"
   xmlns:sodipodi="http://sodipodi.sourceforge.net/DTD/sodipodi-0.dtd"
   xmlns:inkscape="http://www.inkscape.org/namespaces/inkscape"
   id="svg2"
   version="1.1"
   inkscape:version="0.48.5 r10040"
   width="719"
   height="482"
   sodipodi:docname="Ceiling Fan.png">
  <metadata
     id="metadata8">
    <rdf:RDF>
      <cc:Work
         rdf:about="">
        <dc:format>image/svg+xml</dc:format>
        <dc:type
           rdf:resource="http://purl.org/dc/dcmitype/StillImage" />
        <dc:title></dc:title>
      </cc:Work>
    </rdf:RDF>
  </metadata>
  <defs
     id="defs6" />
  <sodipodi:namedview
     pagecolor="#ffffff"
     bordercolor="#666666"
     borderopacity="1"
     objecttolerance="10"
     gridtolerance="10"
     guidetolerance="10"
     inkscape:pageopacity="0"
     inkscape:pageshadow="2"
     inkscape:window-width="1280"
     inkscape:window-height="734"
     id="namedview4"
     showgrid="false"
     inkscape:zoom="0.9671147"
     inkscape:cx="318.13986"
     inkscape:cy="241"
     inkscape:window-x="0"
     inkscape:window-y="27"
     inkscape:window-maximized="1"
     inkscape:current-layer="svg2" />
  <path
     style="fill:#060606"
     d="m 220.91152,432.17726 c -19.84405,-14.52184 21.276,-32.64746 29.70768,-47.60714 11.89801,-13.10904 43.19401,-30.94164 15.68669,-44.69663 C 255.72311,316.09752 228.13131,312.81231 206.58961,303.01263 182.82608,291.29226 157.61228,283.45488 133.853,271.77371 97.584383,256.9016 61.311602,242.02699 25.303022,226.31815 c -22.0769998,-21.14291 24.54379,-29.19893 38.70969,-34.55989 23.670001,8.87229 46.752958,20.98791 70.694778,30.1094 50.15807,22.43669 101.22682,43.31716 151.04623,66.23823 20.24177,14.25766 23.98867,0.66955 22.85679,-16.77549 16.25485,-24.43531 25.63553,-50.31285 21.47156,-80.18835 -0.31415,-28.24551 1.7178,-56.68305 1.83848,-84.72344 -14.32419,-17.622891 -39.46538,-60.514612 -4.40005,-69.673601 16.56286,0.939562 35.91385,-2.138661 51.04196,2.537139 18.87094,23.27162 -9.57933,49.860898 -19.03114,70.638102 -4.10525,35.22024 -4.11643,70.85916 -7.63873,106.12195 -1.29018,26.72238 24.34222,44.22148 24.51916,70.83418 1.34502,24.09719 37.16147,0.37736 52.98893,2.84763 67.89069,-11.97073 135.72321,-23.76068 203.6092,-35.83688 21.6154,-11.00364 49.63914,14.51665 39.61434,36.65588 -60.72981,13.02588 -121.9517,23.87731 -183.02595,35.28326 -27.26602,5.89428 -55.16632,9.61958 -82.18193,16.36373 -19.6377,13.00177 -28.19997,26.58773 -54.09757,27.61837 -12.48667,-0.97387 -22.81299,-3.09906 -33.45341,6.88886 -10.64041,9.98793 -21.59491,32.08898 -31.20192,38.20745 -15.53015,24.22487 -43.13755,17.65818 -67.75192,17.27291 z m 46.70521,-7.7953 c 14.18075,-13.56334 37.24911,-34.28681 42.75752,-52.79318 -16.89505,-1.04522 -17.52338,-26.18983 -33.15527,-4.54367 -16.84175,18.99731 -38.88675,34.63957 -52.36164,55.90207 6.98659,9.58522 32.15226,3.60142 42.75939,1.43478 z m 63.26176,-63.91186 c 13.46154,-4.90184 46.12597,9.15092 46.62551,-10.44654 -26.63753,-13.34568 -56.81108,-9.87743 -85.58908,-8.22555 -20.9071,16.82805 28.396,23.4718 38.96357,18.67209 z m 66.40638,-19.72806 c 12.36346,-13.63752 -0.90695,-29.33008 -12.98504,-15.97102 -12.74624,-7.1656 -31.91083,15.99575 -8.74519,17.02766 7.07981,0.48515 15.06895,2.04949 21.73023,-1.05664 z m -102.77199,-5.7603 c 23.08967,-5.9294 47.68932,2.40293 65.7116,-9.78477 3.04694,-16.8172 18.75667,-8.49395 23.57919,-14.40704 -18.98312,-12.18327 -44.11701,-1.97831 -64.67062,-9.6958 -17.21264,0.44342 -62.7438,2.48208 -51.18632,29.79064 5.72302,9.551 17.10948,5.43075 26.56615,4.09697 z m 135.84724,-4.94448 c 22.66653,-5.17176 45.76902,-7.86352 68.05407,-13.90452 13.37873,5.65877 41.09262,-19.84303 19.6564,-16.93555 -12.53851,-1.78233 -36.64463,10.84092 -43.06493,-0.21912 -14.82558,-1.21766 -30.22584,5.87509 -42.67356,-2.71061 6.33591,14.97126 -13.01003,-5.11102 -24.56891,4.44499 -29.32209,2.01857 8.32758,19.75723 11.34092,30.20507 3.72503,-0.0623 7.67585,0.48107 11.25601,-0.88026 z M 263.65671,309.83613 c 16.13546,-8.69947 25.73839,-18.59331 2.09471,-24.15067 -63.73914,-27.22223 -127.05381,-54.909 -190.789028,-82.3577 -12.19742,-7.18066 -52.13931,1.87856 -43.83375,18.23281 20.20563,5.41348 37.74649,16.6576 57.597991,24.45416 55.239517,22.30898 110.110207,46.36613 165.346207,68.80149 4.27451,3.03848 6.82484,-3.70254 9.58387,-4.98009 z m 101.40231,-11.69858 c 13.80689,-20.43275 -28.6297,-37.16227 -12.54257,-49.93586 -10.67565,-24.21864 -4.57177,-52.79653 -4.56757,-78.86737 4.0539,-25.43652 -4.05619,-55.38264 13.34789,-76.523248 7.26964,-11.636834 26.83567,-40.389919 8.36289,-48.444702 -19.87533,1.47886 -65.45587,-9.547053 -50.02322,25.692702 15.08991,20.411268 22.84098,42.611818 18.48985,68.678408 -0.28214,34.12532 -1.1365,68.24063 -1.95641,102.35628 -13.6319,12.97134 -18.71133,34.25129 -17.96024,53.05338 14.04656,4.36479 32.95409,5.17968 46.84938,3.99041 z"
     id="path3007"
     inkscape:connector-curvature="0"
     sodipodi:nodetypes="cccccccccccccccccccccccsccccccccccccccccccccccccccccccccccccccccccccccc" />
</svg>
